<?xml version="1.0" standalone="no"?>
<!DOCTYPE svg PUBLIC "-//W3C//DTD SVG 20010904//EN"
 "http://www.w3.org/TR/2001/REC-SVG-20010904/DTD/svg10.dtd">
<svg version="1.0" xmlns="http://www.w3.org/2000/svg"
 width="128.000000pt" height="128.000000pt" viewBox="0 0 128.000000 128.000000"
 preserveAspectRatio="xMidYMid meet">
<metadata>
Created by potrace 1.11, written by Peter Selinger 2001-2013
</metadata>
<g transform="translate(0.000000,128.000000) scale(0.100000,-0.100000)"
fill="#000000" stroke="none">
<path d="M0 640 l0 -640 640 0 640 0 0 640 0 640 -640 0 -640 0 0 -640z m849
381 c63 -58 134 -128 157 -156 24 -27 86 -86 139 -130 71 -60 95 -86 95 -104
0 -26 -34 -86 -65 -114 -11 -10 -13 -15 -5 -11 30 15 -233 -250 -295 -298 -16
-12 -35 -27 -42 -33 -55 -46 -86 -62 -129 -68 -23 -3 -45 -7 -50 -8 -28 -5
-32 2 -22 34 5 17 9 89 9 159 -1 95 2 136 14 164 9 21 13 44 10 51 -3 9 0 11
7 7 8 -5 9 -2 5 10 -5 11 -3 15 5 10 8 -5 9 -2 5 10 -4 10 -3 15 3 11 8 -5 34
29 35 47 0 3 4 10 9 15 5 5 6 3 2 -4 -4 -7 -2 -13 5 -13 6 0 9 8 6 20 -3 11
-1 18 3 15 5 -3 11 -1 14 4 8 13 -4 42 -15 35 -5 -3 -6 3 -2 12 4 12 3 15 -5
10 -8 -4 -10 -2 -6 7 8 21 -44 119 -58 111 -6 -4 -8 -3 -5 4 9 13 -2 42 -15
42 -6 0 -4 -8 3 -17 13 -16 12 -17 -3 -4 -10 7 -15 17 -13 22 8 12 -73 51 -87
43 -7 -4 -8 -3 -4 4 8 13 -30 36 -44 27 -6 -4 -9 -1 -8 7 2 7 -5 12 -15 12
-10 -1 -16 0 -13 3 8 8 -18 31 -29 25 -5 -2 8 14 29 36 22 23 42 39 46 37 4
-3 28 2 54 9 29 9 43 10 39 3 -4 -6 0 -8 10 -4 9 3 19 1 23 -5 5 -7 2 -8 -7
-4 -8 4 -5 0 6 -8 11 -9 25 -14 32 -12 7 3 15 0 19 -6 4 -7 3 -8 -4 -4 -7 4
-12 5 -12 2 0 -6 115 -66 125 -66 4 0 3 5 -1 12 -4 7 -3 8 5 4 6 -4 10 -10 7
-14 -2 -4 6 -16 17 -27 11 -11 16 -14 12 -6 -5 10 -4 12 4 7 6 -4 9 -11 6 -16
-3 -5 3 -26 14 -47 10 -21 24 -57 31 -79 l12 -41 42 9 c22 5 65 7 94 4 36 -4
51 -3 47 4 -4 6 -12 10 -18 9 -7 -1 -23 0 -37 1 l-25 2 25 7 c24 7 16 17 -137
167 -122 122 -170 163 -200 171 -38 12 -38 12 -3 6 27 -4 62 -30 149 -112z"/>
</g>
</svg>
